# xmcd CD database file
#
# Track frame offsets:
#	150
#	22665
#	43850
#	64195
#	85380
#	107885
#	130405
#	152365
#	174255
#	191437
#	211952
#
# Disc length: 3125 seconds
#
# Revision: 0
# Processed by: cddbd v1.4PL0 Copyright (c) Steve Scherf et al.
# Submitted via: CDex 1.50Beta7
#
DISCID=8a0c330b
DTITLE=Jeff Golub - Do It Again
DYEAR=2002
DGENRE=Jazz
TTITLE0=Cut the Cake
TTITLE1=On the Beach
TTITLE2=Cruisin'
TTITLE3=Jesus Children of America
TTITLE4=If I Ever Lose This Heaven
TTITLE5=Cold Duck Time
TTITLE6=Turn off the Lights
TTITLE7=Cold Sweat
TTITLE8=Mercy Mercy Me
TTITLE9=Crazy Love
TTITLE10=Careless Whisper
EXTD=YEAR: 2002
EXTT0=
EXTT1=
EXTT2=
EXTT3=
EXTT4=
EXTT5=
EXTT6=
EXTT7=
EXTT8=
EXTT9=
EXTT10=
PLAYORDER=
